Coordinates
version=1
nRows=53
nColumns=11
inDegrees=no

Units are S.I. units (second, meters, Newtons, ...)
If the header above contains a line with 'inDegrees', this indicates whether rotational values are in degrees (yes) or radians (no).

endheader
time	pelvis_tilt	pelvis_tx	pelvis_ty	hip_flexion_r	knee_angle_r	ankle_angle_r	hip_flexion_l	knee_angle_l	ankle_angle_l	lumbar_extension
316.41	-0.0555132	0.305303	1.01127	0.434175	-0.374348	0.253856	0.0815814	-0.816155	-0.231524	0
316.42	-0.0543013	0.306899	1.01257	0.418003	-0.3632	0.260339	0.114648	-0.864328	-0.274588	0
316.43	-0.0530867	0.307019	1.01423	0.400528	-0.353284	0.267445	0.143392	-0.908178	-0.29762	0
316.44	-0.0348964	0.310965	1.01756	0.359846	-0.342555	0.275325	0.14274	-0.939354	-0.294895	0
316.45	-0.0362391	0.31118	1.01878	0.345978	-0.329655	0.279363	0.173003	-0.974376	-0.277677	0
316.46	-0.0316079	0.312051	1.0203	0.325246	-0.319909	0.283325	0.196232	-1.00892	-0.248602	0
316.47	-0.0277335	0.312561	1.02213	0.303434	-0.307974	0.28807	0.217355	-1.0369	-0.213111	0
316.48	-0.0323004	0.311871	1.02311	0.294126	-0.296117	0.290673	0.251332	-1.06384	-0.175767	0
316.49	-0.0454766	0.308853	1.02299	0.296458	-0.283262	0.288817	0.300116	-1.09241	-0.143041	0
316.5	-0.0440977	0.308991	1.02411	0.278852	-0.270957	0.290686	0.323278	-1.10738	-0.115515	0
316.51	-0.0422894	0.309272	1.0252	0.260101	-0.257545	0.292723	0.344517	-1.11728	-0.0897796	0
316.52	-0.0413621	0.309084	1.02618	0.24409	-0.2464	0.295019	0.36658	-1.12353	-0.0659467	0
316.53	-0.040442	0.30882	1.02684	0.228536	-0.236142	0.297603	0.388129	-1.12697	-0.0427023	0
316.54	-0.0244983	0.312025	1.02912	0.192386	-0.226451	0.304717	0.382712	-1.11741	-0.0204198	0
316.55	-0.0220432	0.312602	1.03001	0.172839	-0.212586	0.307285	0.398265	-1.11033	0.00450062	0
316.56	-0.0231548	0.312223	1.0303	0.159261	-0.200686	0.309217	0.418239	-1.10146	0.0301804	0
316.57	-0.0395344	0.30753	1.02876	0.169535	-0.195383	0.306138	0.464241	-1.10058	0.0531767	0
316.58	-0.0233988	0.31138	1.03032	0.13548	-0.186112	0.311755	0.455969	-1.07686	0.0746839	0
316.59	-0.0252617	0.310267	1.02994	0.127304	-0.181537	0.314055	0.47546	-1.05892	0.0944269	0
316.6	-0.042582	0.305882	1.02797	0.140924	-0.178024	0.313707	0.518395	-1.04455	0.109723	0
316.61	-0.043674	0.305055	1.02776	0.131249	-0.17311	0.318026	0.532469	-1.0186	0.12226	0
316.62	-0.0447608	0.30399	1.02734	0.120947	-0.168051	0.322451	0.544703	-0.989394	0.134653	0
316.63	-0.0464987	0.303321	1.02656	0.112636	-0.16289	0.328116	0.55849	-0.959796	0.145047	0
316.64	-0.0481003	0.302581	1.02582	0.103126	-0.156842	0.332122	0.569673	-0.926197	0.154198	0
316.65	-0.0333035	0.305208	1.02662	0.0720965	-0.152357	0.339883	0.553577	-0.883718	0.164357	0
316.66	-0.0344813	0.3046	1.02585	0.0621072	-0.146658	0.342996	0.559063	-0.840949	0.170005	0
316.67	-0.053793	0.300387	1.02334	0.0772705	-0.141453	0.340485	0.590967	-0.800448	0.169209	0
316.68	-0.0367545	0.303531	1.02438	0.0432017	-0.136229	0.34997	0.56609	-0.747236	0.17054	0
316.69	-0.0369819	0.303659	1.02358	0.0307778	-0.129055	0.353865	0.564309	-0.694673	0.173088	0
316.7	-0.0565139	0.29958	1.02085	0.0451606	-0.12521	0.352946	0.58824	-0.642598	0.16998	0
316.71	-0.0419077	0.302608	1.02131	0.0164594	-0.124333	0.364071	0.562214	-0.580786	0.167438	0
316.72	-0.0501707	0.301026	1.0194	0.0154376	-0.119484	0.366178	0.566396	-0.521296	0.162661	0
316.73	-0.0528862	0.300787	1.01785	0.00830841	-0.1168	0.368481	0.560467	-0.458205	0.154642	0
316.74	-0.0530786	0.300994	1.01659	-0.0021094	-0.114965	0.373828	0.547848	-0.39264	0.147986	0
316.75	-0.0574828	0.300788	1.01502	-0.00611939	-0.114096	0.379878	0.540457	-0.328253	0.142055	0
316.76	-0.0574491	0.301364	1.01379	-0.0130962	-0.117503	0.386496	0.528211	-0.266777	0.129964	0
316.77	-0.0739396	0.297554	1.01092	0.00179142	-0.123993	0.387107	0.538633	-0.213126	0.114691	0
316.78	-0.050976	0.303121	1.01181	-0.0354402	-0.127063	0.396071	0.497803	-0.162017	0.110313	0
316.79	-0.0737299	0.299901	1.00849	-0.0140829	-0.128799	0.392881	0.516036	-0.118124	0.103055	0
316.8	-0.058807	0.303422	1.00856	-0.0389074	-0.135997	0.398667	0.489198	-0.0847991	0.108061	0
316.81	-0.0777986	0.300369	1.00557	-0.0188618	-0.143849	0.398202	0.507161	-0.0588181	0.107773	0
316.82	-0.0628208	0.303967	1.00578	-0.0446932	-0.150209	0.408475	0.480228	-0.0383866	0.120968	0
316.83	-0.061762	0.305538	1.00494	-0.0527516	-0.156806	0.411375	0.469365	-0.0221392	0.129566	0
316.84	-0.0757026	0.304239	1.00282	-0.0385908	-0.166808	0.410937	0.48023	-0.0164681	0.12596	0
316.85	-0.0616663	0.307796	1.00325	-0.0611651	-0.176177	0.413849	0.455118	-0.0173772	0.120928	0
316.86	-0.0609693	0.30908	1.00252	-0.0662436	-0.185943	0.412773	0.449318	-0.0259737	0.108662	0
316.87	-0.0600472	0.310636	1.00197	-0.0707134	-0.197854	0.411661	0.443249	-0.0348545	0.0979114	0
316.88	-0.059756	0.312105	1.00177	-0.0729702	-0.212443	0.407575	0.436404	-0.0395148	0.0870633	0
316.89	-0.0592117	0.313672	1.00198	-0.074183	-0.229285	0.401365	0.428477	-0.0423927	0.0719992	0
316.9	-0.0589774	0.315042	1.00217	-0.0750399	-0.245918	0.393431	0.419592	-0.0411605	0.0521954	0
316.91	-0.0711227	0.314441	1.00152	-0.0606157	-0.26105	0.378499	0.42545	-0.0373047	0.0334199	0
316.92	-0.0566398	0.319203	1.00339	-0.0826609	-0.272756	0.364667	0.396451	-0.0331267	0.033358	0
316.93	-0.0527571	0.321455	1.00478	-0.0900577	-0.285938	0.34765	0.382207	-0.0322977	0.0343375	0
